<svg class="diagram-root" style="background: #f5f6f6" xmlns="http://www.w3.org/2000/svg" xmlns:xlink="http://www.w3.org/1999/xlink"><style>.diagram-root { font-family: "Helvetica Neue", sans-serif; font-size: 12px; } .t { overflow: visible; } .t-bg { y: 40; fill: #fff;   } .th { fill: #005aa0;   } .tht { fill: #fff; font-size: 14px;  } .tf { fill: #323c46; overflow: visible; } .tf.pk { fill: #005aa0; font-weight: bold; } .tf.fk { font-weight: bold; } .ty { fill: #adb1b5; font-weight: normal; text-anchor: end; } .r { fill: transparent; stroke: #c3c3c3; stroke-width: 1; } .l { stroke: 1; } .i { fill: #c2c7ce; stroke: #c2c7ce; } .i.ix { fill: #afb3b6; stroke: #000; } .fa { fill: transparent; overflow: visible; } .fa .bg.hover { fill: #f7f7f7; } .c { cy: 12; r: 4; stroke: #d2d2dc; fill: #d2d2dc; } .hr { fill: transparent; stroke: #323c46; stroke-opacity: 0.035; stroke-width: 13; } .dc { stroke: #fa5a3c; fill: #fa5a3c; } .x { stroke: white; stroke-width: 1; } .hl .th { fill: #1b9bff; } .hl .tht {  } .fhl .bg { fill: #e7f4ff; } .fhls .bg {  } .r.hl { stroke: #1b9bff; } .dim { opacity: 0.25; }</style><g class="drawing-wrapper" transform="translate(-59.923030303030345, -75.45363636363632) scale(1,1)"><g class="rs"><path d="M 96.37181818181818 162.45363636363632 m -1, 0 a 1,1 0 1,0 2,0 a 1,1 0 1,0 -2,0 M 96.37181818181818 162.45363636363632 m -0.5, 0 a 0.5,0.5 0 1,0 1,0 a 0.5,0.5 0 1,0 -1,0  M96.37181818181818 162.45363636363632 L96.37181818181818 162.45363636363632 84.37181818181818 162.45363636363632 M 96.37181818181818 168.45363636363632 m -1, 0 a 1,1 0 1,0 2,0 a 1,1 0 1,0 -2,0 M 96.37181818181818 168.45363636363632 m -0.5, 0 a 0.5,0.5 0 1,0 1,0 a 0.5,0.5 0 1,0 -1,0  M96.37181818181818 168.45363636363632 L96.37181818181818 168.45363636363632 89.37181818181818 162.45363636363632 96.37181818181818 156.45363636363632 M 96.37181818181818 156.45363636363632 m -1, 0 a 1,1 0 1,0 2,0 a 1,1 0 1,0 -2,0 M 96.37181818181818 156.45363636363632 m -0.5, 0 a 0.5,0.5 0 1,0 1,0 a 0.5,0.5 0 1,0 -1,0  M84.37181818181818 162.45363636363632 C 11.25375757575764 162.45363636363632, 19.923030303030345 347.1172727272709, 69.92303030303034 347.1172727272709 M 81.92303030303034 347.1172727272709 m -1, 0 a 1,1 0 1,0 2,0 a 1,1 0 1,0 -2,0 M 81.92303030303034 347.1172727272709 m -0.5, 0 a 0.5,0.5 0 1,0 1,0 a 0.5,0.5 0 1,0 -1,0  M81.92303030303034 347.1172727272709 L81.92303030303034 347.1172727272709 69.92303030303034 347.1172727272709 M75.92303030303034 353.1172727272709 L75.92303030303034 353.1172727272709 75.92303030303034 341.1172727272709" id="h672575383" class="r"></path><path d="M 336.9515151515141 454.80575757575804 m -1, 0 a 1,1 0 1,0 2,0 a 1,1 0 1,0 -2,0 M 336.9515151515141 454.80575757575804 m -0.5, 0 a 0.5,0.5 0 1,0 1,0 a 0.5,0.5 0 1,0 -1,0  M336.9515151515141 454.80575757575804 L336.9515151515141 454.80575757575804 324.9515151515141 454.80575757575804 M 336.9515151515141 460.80575757575804 m -1, 0 a 1,1 0 1,0 2,0 a 1,1 0 1,0 -2,0 M 336.9515151515141 460.80575757575804 m -0.5, 0 a 0.5,0.5 0 1,0 1,0 a 0.5,0.5 0 1,0 -1,0  M336.9515151515141 460.80575757575804 L336.9515151515141 460.80575757575804 329.9515151515141 454.80575757575804 336.9515151515141 448.80575757575804 M 336.9515151515141 448.80575757575804 m -1, 0 a 1,1 0 1,0 2,0 a 1,1 0 1,0 -2,0 M 336.9515151515141 448.80575757575804 m -0.5, 0 a 0.5,0.5 0 1,0 1,0 a 0.5,0.5 0 1,0 -1,0  M324.9515151515141 454.80575757575804 C 256.72460606060525 454.80575757575804, 263.55969696969606 248.03878787878762, 313.55969696969606 248.03878787878762 M 325.55969696969606 248.03878787878762 m -1, 0 a 1,1 0 1,0 2,0 a 1,1 0 1,0 -2,0 M 325.55969696969606 248.03878787878762 m -0.5, 0 a 0.5,0.5 0 1,0 1,0 a 0.5,0.5 0 1,0 -1,0  M325.55969696969606 248.03878787878762 L325.55969696969606 248.03878787878762 313.55969696969606 248.03878787878762 M319.55969696969606 254.03878787878762 L319.55969696969606 254.03878787878762 319.55969696969606 242.03878787878762" id="h3102077576" class="r"></path><path d="M 499.14 479.80575757575804 m -1, 0 a 1,1 0 1,0 2,0 a 1,1 0 1,0 -2,0 M 499.14 479.80575757575804 m -0.5, 0 a 0.5,0.5 0 1,0 1,0 a 0.5,0.5 0 1,0 -1,0  M499.14 479.80575757575804 L499.14 479.80575757575804 511.14 479.80575757575804 M 499.14 485.80575757575804 m -1, 0 a 1,1 0 1,0 2,0 a 1,1 0 1,0 -2,0 M 499.14 485.80575757575804 m -0.5, 0 a 0.5,0.5 0 1,0 1,0 a 0.5,0.5 0 1,0 -1,0  M499.14 485.80575757575804 L499.14 485.80575757575804 506.14 479.80575757575804 499.14 473.80575757575804 M 499.14 473.80575757575804 m -1, 0 a 1,1 0 1,0 2,0 a 1,1 0 1,0 -2,0 M 499.14 473.80575757575804 m -0.5, 0 a 0.5,0.5 0 1,0 1,0 a 0.5,0.5 0 1,0 -1,0  M511.14 479.80575757575804 C 849.588 479.80575757575804, 741.42 266.82, 691.42 266.82 M 679.42 266.82 m -1, 0 a 1,1 0 1,0 2,0 a 1,1 0 1,0 -2,0 M 679.42 266.82 m -0.5, 0 a 0.5,0.5 0 1,0 1,0 a 0.5,0.5 0 1,0 -1,0  M679.42 266.82 L679.42 266.82 691.42 266.82 M685.42 272.82 L685.42 272.82 685.42 260.82" id="h81144485" class="r"></path><path d="M 266.41 347.1172727272709 m -1, 0 a 1,1 0 1,0 2,0 a 1,1 0 1,0 -2,0 M 266.41 347.1172727272709 m -0.5, 0 a 0.5,0.5 0 1,0 1,0 a 0.5,0.5 0 1,0 -1,0  M266.41 347.1172727272709 L266.41 347.1172727272709 278.41 347.1172727272709 M 266.41 353.1172727272709 m -1, 0 a 1,1 0 1,0 2,0 a 1,1 0 1,0 -2,0 M 266.41 353.1172727272709 m -0.5, 0 a 0.5,0.5 0 1,0 1,0 a 0.5,0.5 0 1,0 -1,0  M266.41 353.1172727272709 L266.41 353.1172727272709 273.41 347.1172727272709 266.41 341.1172727272709 M 266.41 341.1172727272709 m -1, 0 a 1,1 0 1,0 2,0 a 1,1 0 1,0 -2,0 M 266.41 341.1172727272709 m -0.5, 0 a 0.5,0.5 0 1,0 1,0 a 0.5,0.5 0 1,0 -1,0  M278.41 347.1172727272709 C 700.778 347.1172727272709, 561.14 479.80575757575804, 511.14 479.80575757575804 M 499.14 479.80575757575804 m -1, 0 a 1,1 0 1,0 2,0 a 1,1 0 1,0 -2,0 M 499.14 479.80575757575804 m -0.5, 0 a 0.5,0.5 0 1,0 1,0 a 0.5,0.5 0 1,0 -1,0  M499.14 479.80575757575804 L499.14 479.80575757575804 511.14 479.80575757575804 M505.14 485.80575757575804 L505.14 485.80575757575804 505.14 473.80575757575804" id="h1625454139" class="r"></path><path d="M 554.04 266.82 m -1, 0 a 1,1 0 1,0 2,0 a 1,1 0 1,0 -2,0 M 554.04 266.82 m -0.5, 0 a 0.5,0.5 0 1,0 1,0 a 0.5,0.5 0 1,0 -1,0  M554.04 266.82 L554.04 266.82 542.04 266.82 M 554.04 272.82 m -1, 0 a 1,1 0 1,0 2,0 a 1,1 0 1,0 -2,0 M 554.04 272.82 m -0.5, 0 a 0.5,0.5 0 1,0 1,0 a 0.5,0.5 0 1,0 -1,0  M554.04 272.82 L554.04 272.82 547.04 266.82 554.04 260.82 M 554.04 260.82 m -1, 0 a 1,1 0 1,0 2,0 a 1,1 0 1,0 -2,0 M 554.04 260.82 m -0.5, 0 a 0.5,0.5 0 1,0 1,0 a 0.5,0.5 0 1,0 -1,0  M542.04 266.82 C 492.03999999999996 266.82, 487.64199999999994 548.8199999999999, 549.37 548.8199999999999 M 561.37 548.8199999999999 m -1, 0 a 1,1 0 1,0 2,0 a 1,1 0 1,0 -2,0 M 561.37 548.8199999999999 m -0.5, 0 a 0.5,0.5 0 1,0 1,0 a 0.5,0.5 0 1,0 -1,0  M561.37 548.8199999999999 L561.37 548.8199999999999 549.37 548.8199999999999 M555.37 554.8199999999999 L555.37 554.8199999999999 555.37 542.8199999999999" id="h582007367" class="r"></path></g><g class="hrs"></g><g class="ts"><svg width="131.05" height="150" x="561.37" y="491.82" id="h1001378152" class="t"><rect height="40" width="131.05" class="th"></rect><text x="13" y="25" class="tht">EmplyeeSalaries</text><rect height="110" width="131.05" class="t-bg"></rect><text x="13" y="61" class="tf pk">empl_no<tspan x="118.05000000000001" class="ty">int</tspan></text><path d="M7,14A2,2 0 0,1 5,12A2,2 0 0,1 7,10A2,2 0 0,1 9,12A2,2 0 0,1 7,14M12.65,10C11.83,7.67 9.61,6 7, 6A6, 6 0 0, 0 1, 12A6, 6 0 0, 0 7, 18C9.61, 18 11.83, 16.33 12.65, 14H17V18H21V14H23V10H12.65Z" class="i pk" transform="translate(85.37617187500001, 48) scale(0.65)"></path><text x="13" y="86" class="tf">Salary<tspan x="118.05000000000001" class="ty">money</tspan></text><text x="13" y="111" class="tf">from_date<tspan x="118.05000000000001" class="ty">Date</tspan></text><text x="13" y="136" class="tf">to_date<tspan x="118.05000000000001" class="ty">int</tspan></text></svg><svg width="125.38" height="150" x="554.04" y="209.82" id="h3517680912" class="t"><rect height="40" width="125.38" class="th"></rect><text x="13" y="25" class="tht">Titles</text><rect height="110" width="125.38" class="t-bg"></rect><text x="13" y="61" class="tf pk">empl_no<tspan x="112.38" class="ty">int</tspan></text><path d="M7,14A2,2 0 0,1 5,12A2,2 0 0,1 7,10A2,2 0 0,1 9,12A2,2 0 0,1 7,14M12.65,10C11.83,7.67 9.61,6 7, 6A6, 6 0 0, 0 1, 12A6, 6 0 0, 0 7, 18C9.61, 18 11.83, 16.33 12.65, 14H17V18H21V14H23V10H12.65Z" class="i pk" transform="translate(79.706171875, 48) scale(0.65)"></path><text x="13" y="86" class="tf">empl_Title<tspan x="112.38" class="ty">int</tspan></text><text x="13" y="111" class="tf">from_date<tspan x="112.38" class="ty">Date</tspan></text><text x="13" y="136" class="tf">to_date<tspan x="112.38" class="ty">Date</tspan></text></svg><svg width="131.83" height="125" x="96.37181818181818" y="105.45363636363632" id="h3897380719" class="t"><rect height="40" width="131.83" class="th"></rect><text x="13" y="25" class="tht">DeptEmployeses</text><rect height="85" width="131.83" class="t-bg"></rect><text x="13" y="61" class="tf pk">empl_no<tspan x="118.83000000000001" class="ty">int</tspan></text><path d="M7,14A2,2 0 0,1 5,12A2,2 0 0,1 7,10A2,2 0 0,1 9,12A2,2 0 0,1 7,14M12.65,10C11.83,7.67 9.61,6 7, 6A6, 6 0 0, 0 1, 12A6, 6 0 0, 0 7, 18C9.61, 18 11.83, 16.33 12.65, 14H17V18H21V14H23V10H12.65Z" class="i pk" transform="translate(86.15617187500001, 48) scale(0.65)"></path><text x="13" y="86" class="tf">from_date<tspan x="118.83000000000001" class="ty">Date</tspan></text><text x="13" y="111" class="tf">to_date<tspan x="118.83000000000001" class="ty">Date</tspan></text></svg><svg width="135.39" height="100" x="325.55969696969606" y="191.03878787878762" id="h3708248841" class="t"><rect height="40" width="135.39" class="th"></rect><text x="13" y="25" class="tht">Departments</text><rect height="60" width="135.39" class="t-bg"></rect><text x="13" y="61" class="tf pk">dept_no<tspan x="122.38999999999999" class="ty">int</tspan></text><path d="M7,14A2,2 0 0,1 5,12A2,2 0 0,1 7,10A2,2 0 0,1 9,12A2,2 0 0,1 7,14M12.65,10C11.83,7.67 9.61,6 7, 6A6, 6 0 0, 0 1, 12A6, 6 0 0, 0 7, 18C9.61, 18 11.83, 16.33 12.65, 14H17V18H21V14H23V10H12.65Z" class="i pk" transform="translate(89.71617187499999, 48) scale(0.65)"></path><text x="13" y="86" class="tf">dept_name<tspan x="122.38999999999999" class="ty">string</tspan></text></svg><svg width="184.49" height="200" x="81.92303030303034" y="290.1172727272709" id="h2421874875" class="t"><rect height="40" width="184.49" class="th"></rect><text x="13" y="25" class="tht">Employee</text><rect height="160" width="184.49" class="t-bg"></rect><text x="13" y="61" class="tf pk">emp_no<tspan x="171.49" class="ty">int</tspan></text><path d="M7,14A2,2 0 0,1 5,12A2,2 0 0,1 7,10A2,2 0 0,1 9,12A2,2 0 0,1 7,14M12.65,10C11.83,7.67 9.61,6 7, 6A6, 6 0 0, 0 1, 12A6, 6 0 0, 0 7, 18C9.61, 18 11.83, 16.33 12.65, 14H17V18H21V14H23V10H12.65Z" class="i pk" transform="translate(138.816171875, 48) scale(0.65)"></path><text x="13" y="86" class="tf">birth_date<tspan x="171.49" class="ty">DATE,</tspan></text><text x="13" y="111" class="tf">first_name<tspan x="171.49" class="ty">VARCHAR(30),</tspan></text><text x="13" y="136" class="tf">last_name<tspan x="171.49" class="ty">VARCHAR(30),</tspan></text><text x="13" y="161" class="tf">gender<tspan x="171.49" class="ty">CHAR(1),</tspan></text><text x="13" y="186" class="tf">hire_date<tspan x="171.49" class="ty">Date</tspan></text></svg><svg width="162.19" height="150" x="336.9515151515141" y="397.80575757575804" id="h2951077092" class="t"><rect height="40" width="162.19" class="th"></rect><text x="13" y="25" class="tht">Department_Manager</text><rect height="110" width="162.19" class="t-bg"></rect><text x="13" y="61" class="tf pk">dept_no<tspan x="149.19" class="ty">string</tspan></text><path d="M7,14A2,2 0 0,1 5,12A2,2 0 0,1 7,10A2,2 0 0,1 9,12A2,2 0 0,1 7,14M12.65,10C11.83,7.67 9.61,6 7, 6A6, 6 0 0, 0 1, 12A6, 6 0 0, 0 7, 18C9.61, 18 11.83, 16.33 12.65, 14H17V18H21V14H23V10H12.65Z" class="i pk" transform="translate(99.84625, 48) scale(0.65)"></path><text x="13" y="86" class="tf pk">empl_no<tspan x="149.19" class="ty">int</tspan></text><path d="M7,14A2,2 0 0,1 5,12A2,2 0 0,1 7,10A2,2 0 0,1 9,12A2,2 0 0,1 7,14M12.65,10C11.83,7.67 9.61,6 7, 6A6, 6 0 0, 0 1, 12A6, 6 0 0, 0 7, 18C9.61, 18 11.83, 16.33 12.65, 14H17V18H21V14H23V10H12.65Z" class="i pk" transform="translate(116.516171875, 73) scale(0.65)"></path><text x="13" y="111" class="tf">from_date<tspan x="149.19" class="ty">Date</tspan></text><text x="13" y="136" class="tf">to_date<tspan x="149.19" class="ty">Date</tspan></text></svg></g></g><text class="qdbd-link" x="10" y="20">www.quickdatabasediagrams.com</text></svg>